<svg width="100" height="100" viewBox="0 0 100 100" fill="none" xmlns="http://www.w3.org/2000/svg">
<path d="M0 15.625C0 14.7962 0.32924 14.0013 0.915291 13.4153C1.50134 12.8292 2.2962 12.5 3.125 12.5H12.5C13.1971 12.5002 13.8741 12.7334 14.4233 13.1627C14.9726 13.5919 15.3626 14.1924 15.5312 14.8687L18.0625 25H90.625C91.0997 25.0001 91.5681 25.1084 91.9947 25.3166C92.4213 25.5248 92.7948 25.8274 93.087 26.2015C93.3792 26.5756 93.5823 27.0114 93.6809 27.4757C93.7796 27.94 93.7711 28.4207 93.6562 28.8812L84.2812 66.3813C84.1126 67.0576 83.7226 67.6581 83.1733 68.0873C82.6241 68.5166 81.9471 68.7498 81.25 68.75H25C24.3029 68.7498 23.6259 68.5166 23.0767 68.0873C22.5274 67.6581 22.1374 67.0576 21.9688 66.3813L10.0625 18.75H3.125C2.2962 18.75 1.50134 18.4208 0.915291 17.8347C0.32924 17.2487 0 16.4538 0 15.625ZM19.625 31.25L22.75 43.75H31.25V31.25H19.625ZM37.5 31.25V43.75H50V31.25H37.5ZM56.25 31.25V43.75H68.75V31.25H56.25ZM75 31.25V43.75H83.5L86.625 31.25H75ZM81.9375 50H75V62.5H78.8125L81.9375 50ZM68.75 50H56.25V62.5H68.75V50ZM50 50H37.5V62.5H50V50ZM31.25 50H24.3125L27.4375 62.5H31.25V50ZM31.25 81.25C29.5924 81.25 28.0027 81.9085 26.8306 83.0806C25.6585 84.2527 25 85.8424 25 87.5C25 89.1576 25.6585 90.7473 26.8306 91.9194C28.0027 93.0915 29.5924 93.75 31.25 93.75C32.9076 93.75 34.4973 93.0915 35.6694 91.9194C36.8415 90.7473 37.5 89.1576 37.5 87.5C37.5 85.8424 36.8415 84.2527 35.6694 83.0806C34.4973 81.9085 32.9076 81.25 31.25 81.25ZM18.75 87.5C18.75 84.1848 20.067 81.0054 22.4112 78.6612C24.7554 76.317 27.9348 75 31.25 75C34.5652 75 37.7446 76.317 40.0888 78.6612C42.433 81.0054 43.75 84.1848 43.75 87.5C43.75 90.8152 42.433 93.9946 40.0888 96.3388C37.7446 98.683 34.5652 100 31.25 100C27.9348 100 24.7554 98.683 22.4112 96.3388C20.067 93.9946 18.75 90.8152 18.75 87.5ZM75 81.25C73.3424 81.25 71.7527 81.9085 70.5806 83.0806C69.4085 84.2527 68.75 85.8424 68.75 87.5C68.75 89.1576 69.4085 90.7473 70.5806 91.9194C71.7527 93.0915 73.3424 93.75 75 93.75C76.6576 93.75 78.2473 93.0915 79.4194 91.9194C80.5915 90.7473 81.25 89.1576 81.25 87.5C81.25 85.8424 80.5915 84.2527 79.4194 83.0806C78.2473 81.9085 76.6576 81.25 75 81.25ZM62.5 87.5C62.5 84.1848 63.817 81.0054 66.1612 78.6612C68.5054 76.317 71.6848 75 75 75C78.3152 75 81.4946 76.317 83.8388 78.6612C86.183 81.0054 87.5 84.1848 87.5 87.5C87.5 90.8152 86.183 93.9946 83.8388 96.3388C81.4946 98.683 78.3152 100 75 100C71.6848 100 68.5054 98.683 66.1612 96.3388C63.817 93.9946 62.5 90.8152 62.5 87.5Z" fill="black"/>
</svg>
