<svg width="100" height="100" viewBox="0 0 100 100" fill="none" xmlns="http://www.w3.org/2000/svg">
<path fill-rule="evenodd" clip-rule="evenodd" d="M15.625 75C15.625 74.1712 15.9542 73.3763 16.5403 72.7903C17.1263 72.2042 17.9212 71.875 18.75 71.875H81.25C82.0788 71.875 82.8737 72.2042 83.4597 72.7903C84.0458 73.3763 84.375 74.1712 84.375 75C84.375 75.8288 84.0458 76.6237 83.4597 77.2097C82.8737 77.7958 82.0788 78.125 81.25 78.125H18.75C17.9212 78.125 17.1263 77.7958 16.5403 77.2097C15.9542 76.6237 15.625 75.8288 15.625 75ZM15.625 50C15.625 49.1712 15.9542 48.3763 16.5403 47.7903C17.1263 47.2042 17.9212 46.875 18.75 46.875H81.25C82.0788 46.875 82.8737 47.2042 83.4597 47.7903C84.0458 48.3763 84.375 49.1712 84.375 50C84.375 50.8288 84.0458 51.6237 83.4597 52.2097C82.8737 52.7958 82.0788 53.125 81.25 53.125H18.75C17.9212 53.125 17.1263 52.7958 16.5403 52.2097C15.9542 51.6237 15.625 50.8288 15.625 50ZM15.625 25C15.625 24.1712 15.9542 23.3763 16.5403 22.7903C17.1263 22.2042 17.9212 21.875 18.75 21.875H81.25C82.0788 21.875 82.8737 22.2042 83.4597 22.7903C84.0458 23.3763 84.375 24.1712 84.375 25C84.375 25.8288 84.0458 26.6237 83.4597 27.2097C82.8737 27.7958 82.0788 28.125 81.25 28.125H18.75C17.9212 28.125 17.1263 27.7958 16.5403 27.2097C15.9542 26.6237 15.625 25.8288 15.625 25V25Z" fill="white"/>
</svg>
